{"title":"P3K Pinocchio 3000 (2004) (DVDrip-catalan-spanish-english)","uid":8717177,"size":1412687872,"categoryP":"video","categoryS":"movies","magnet":"?xt=urn:btih:88b57ae230cd5550a166429a3379df3f6c4da37a&amp;dn=P3K+Pinocchio+3000+%282004%29+%28DVDrip-catalan-spanish-english%29&amp;tr=udp%3A%2F%2Ftracker.openbittorrent.com%3A80&amp;tr=udp%3A%2F%2Fopen.demonii.com%3A1337&amp;tr=udp%3A%2F%2Ftracker.coppersurfer.tk%3A6969&amp;tr=udp%3A%2F%2Fexodus.desync.com%3A6969","seeders":2,"leechers":0,"uploader":null,"files":1,"time":1374349416,"description":"P3K Pinocchio 3000 (2004) (DVDrip.AC3.5.1.catalan-spanish-english).per.PIZARRIN.&amp;.rous.(Mecanoscrit.cat)\n\nFormat  : AVI\nFormat/Info  : Audio Video Interleave\nFile size : 1.32 GiB\nDuration  : 1h 19mn\nOverall bit rate  : 2 365 Kbps\nWriting application   : VirtualDubMod 1.5.10.2 (build 2540/release)\nWriting library : VirtualDubMod build 2540/release\n\nVideo\nID  : 0\nFormat  : MPEG-4 Visual\nFormat profile   : Advanced Simple@L5\nFormat settings, BVOP  : 2\nFormat settings, QPel   : No\nFormat settings, GMC  : No warppoints\nFormat settings, Matrix  :Default (MPEG)\nCodec ID  : XVID\nCodec ID/Hint  : XviD\nDuration   : 1h 19mn\nBit rate   : 1 322 Kbps\nWidth  : 704 pixels\nHeight  : 396 pixels\nDisplay aspect ratio  : 16:9\nFrame rate   : 25.000 fps\nColor space  : YUV\nChroma subsampling   : 4:2:0\nBit depth  : 8 bits\nScan type  : Progressive\nCompression mode : Lossy\nBits/(Pixel*Frame)   : 0.190\nStream size   : 753 MiB (56%)\nWriting library  : XviD 1.2.1 (UTC 2008-12-04)\n\nAudio #1\nID  : 1\nFormat : AC-3\nFormat/Info  : Audio Coding 3\nMode extension : CM (complete main)\nFormat settings, Endianness  : Big\nCodec ID  : 2000\nDuration  : 1h 19mn\nBit rate mode  : Constant\nBit rate  : 384 Kbps\nChannel(s)  : 6 channels\nChannel positions  :Front: L C R, Side: L R, LFE\nSampling rate : 48.0 KHz\nBit depth  : 16 bits\nCompression mode   : Lossy\nStream size   : 219 MiB (16%)\nAlignment   : Split accross interleaves\nInterleave, duration  : 40 ms (1.00 video frame)\nInterleave, preload duration :500 ms\n\nAudio #2\nID   : 2\nFormat   : AC-3\nFormat/Info   : Audio Coding 3\nMode extension   : CM (complete main)\nFormat settings, Endianness   :Big\nCodec ID  : 2000\nDuration  : 1h 19mn\nBit rate mode  : Constant\nBit rate  : 320 Kbps\nChannel(s)  : 6 channels\nChannel positions   : Front: L C R, Side: L R, LFE\nSampling rate   : 48.0 KHz\nBit depth  : 16 bits\nCompression mode   : Lossy\nStream size  : 182 MiB (14%)\nAlignment  : Split accross interleaves\nInterleave, duration  : 40 ms (1.00 video frame)\nInterleave, preload duration : 500 ms\n\nAudio #3\nID   : 3\nFormat   : AC-3\nFormat/Info   : Audio Coding 3\nMode extension : CM (complete main)\nFormat settings, Endianness  : Big\nCodec ID   : 2000\nDuration  : 1h 19mn\nBit rate mode   : Constant\nBit rate  : 320 Kbps\nChannel(s)     : 6 channels\nChannel positions   : Front: L C R, Side: L R, LFE\nSampling rate  : 48.0 KHz\nBit depth   : 16 bits\nCompression mode : Lossy\nStream size   : 182 MiB (14%)\nAlignment  : Split accross interleaves\nInterleave, duration   : 40 ms (1.00 video frame)\nInterleave, preload duration   : 500 ms\n","torrent":{"xt":"urn:btih:88b57ae230cd5550a166429a3379df3f6c4da37a","amp;dn":"P3K+Pinocchio+3000+%282004%29+%28DVDrip-catalan-spanish-english%29","amp;tr":["udp%3A%2F%2Ftracker.openbittorrent.com%3A80","udp%3A%2F%2Fopen.demonii.com%3A1337","udp%3A%2F%2Ftracker.coppersurfer.tk%3A6969","udp%3A%2F%2Fexodus.desync.com%3A6969"],"infoHash":"88b57ae230cd5550a166429a3379df3f6c4da37a","infoHashBuffer":{"type":"Buffer","data":[136,181,122,226,48,205,85,80,161,102,66,154,51,121,223,63,108,77,163,122]},"announce":[],"urlList":[]}}